<?xml version="1.0" encoding="utf-8"?>
<!-- Generator: Adobe Illustrator 24.0.2, SVG Export Plug-In . SVG Version: 6.00 Build 0)  -->
<svg version="1.1" id="Слой_1" xmlns="http://www.w3.org/2000/svg" xmlns:xlink="http://www.w3.org/1999/xlink" x="0px" y="0px"
	 viewBox="0 0 512 512" style="enable-background:new 0 0 512 512;" xml:space="preserve">
<style type="text/css">
	.st0{fill-rule:evenodd;clip-rule:evenodd;fill:none;stroke:#FFFFFF;stroke-width:28;stroke-miterlimit:10;}
</style>
<path id="телефон" class="st0" d="M395.6,378c0,0-30.4,28-31.2,28c0,0-29.6,11.2-44.8,5.6c-12.8-4.8-26.4-10.4-38.4-16.8
	c0,0-25.6-14.4-32.8-18.4c-15.2-8.8-30.4-20-44-32c-7.2-5.6-13.6-12-20-18.4c-1.6-1.6-3.2-3.2-4.8-4.8l-15.2-18.4l-20-24.8
	c-14.4-20.8-36.8-67.1-36.8-67.1c-0.8-2.4-1.6-4-2.4-6.4c-2.4-4-4-8.8-5.6-13.6c-0.8-1.6-1.6-4-1.6-6.4c-0.8-3.2-0.8-6.4-0.8-9.6
	c0-4,0.8-8,0.8-12c1.6-7.2,4-13.6,8-19.2c2.4-3.2,4.8-5.6,7.2-8l20-20c7.2-6.4,16.8-10.4,25.6-10.4c7.2,0.8,16,4,21.6,10.4l3.2,3.2
	l4,4.8c0.8,0.8,0.8,0.8,0.8,0.8l22.4,29.6l7.2,8.8c6.4,8,8.8,19.2,5.6,28.8l-10.4,42.4c-0.8,2.4,2.4,8,2.4,8l33.6,35.2l15.2,16.8
	l2.4,2.4l0.8,0.4l0.8,0.4c2.4,0.8,5.6,0.8,8,0l42.4-10.4c10.4-2.4,20.8,0,28.8,6.4l44.8,34.4C408.4,339.7,410,363.6,395.6,378z"/>
</svg>
