<?xml version="1.0" encoding="utf-8"?>
<!-- Generator: Adobe Illustrator 24.0.2, SVG Export Plug-In . SVG Version: 6.00 Build 0)  -->
<svg version="1.1" id="Слой_1" xmlns="http://www.w3.org/2000/svg" xmlns:xlink="http://www.w3.org/1999/xlink" x="0px" y="0px"
	 viewBox="0 0 1080 1080" style="enable-background:new 0 0 1080 1080;" xml:space="preserve">
<style type="text/css">
	.st0{fill:#FFFFFF;}
</style>
<g>
	<path class="st0" d="M871.1,705.4c0,2.5,0,4.9-0.2,7.3H218.6c-26.3-4.4-51.1-13.2-73.7-25.7c-25.3-14-47.7-32.5-66.1-54.5
		c-30.7-36.7-50.3-83-53.5-133.7V327c5.3-81.2,52.2-151,119.6-188.2c26.1-14.4,55.2-24,86.2-27.4c8.6-1,17.3-1.5,26.1-1.5h590.3
		c81.3,0,149.7,55.4,169.3,130.6H280.8c-20.8,0-40.4,4.6-58,13c-46,21.7-77.8,68.6-77.8,122.8v73.1c0,54.2,31.8,101,77.7,122.8
		c0,0,0,0,0.1,0c9.1,4.3,18.8,7.6,28.8,9.8H768C826.6,592.5,871.1,643.8,871.1,705.4z"/>
	<path class="st0" d="M209.2,375.4c0-2.5,0.1-4.9,0.2-7.3h652.3c26.3,4.4,51.2,13.2,73.7,25.7c25.3,14,47.7,32.5,66.1,54.5
		c30.7,36.7,50.3,83,53.6,133.7v171.8c-5.3,81.2-52.2,151-119.6,188.2c-26.1,14.4-55.2,24-86.2,27.4c-8.6,1-17.3,1.5-26.1,1.5H232.7
		C151.4,971,83,915.6,63.4,840.4h736.2c20.8,0,40.4-4.7,58-13c46-21.7,77.8-68.6,77.8-122.8v-73.1c0-54.2-31.8-101-77.7-122.8
		c0,0,0,0,0,0c-9.1-4.3-18.8-7.6-28.8-9.8H312.3C253.6,488.3,209.2,437,209.2,375.4z"/>
</g>
</svg>
