<?xml version="1.0" encoding="utf-8"?>
<!-- Generator: Adobe Illustrator 24.0.2, SVG Export Plug-In . SVG Version: 6.00 Build 0)  -->
<svg version="1.1" id="Слой_1" xmlns="http://www.w3.org/2000/svg" xmlns:xlink="http://www.w3.org/1999/xlink" x="0px" y="0px"
	 viewBox="0 0 1080 1080" style="enable-background:new 0 0 1080 1080;" xml:space="preserve">
<g>
	<path d="M871.09,705.4c0,2.46-0.05,4.86-0.21,7.26H218.63c-26.33-4.39-51.15-13.22-73.71-25.7c-25.29-13.95-47.65-32.5-66.09-54.49
		c-30.67-36.67-50.26-82.96-53.55-133.74V326.95c5.28-81.19,52.24-150.98,119.64-188.23c26.07-14.42,55.22-23.98,86.2-27.43
		c8.57-0.99,17.29-1.46,26.12-1.46h590.35c81.29,0,149.68,55.43,169.32,130.61H280.75c-20.79,0-40.44,4.65-58.04,13.01
		c-45.97,21.73-77.79,68.6-77.79,122.82v73.14c0,54.23,31.76,101.04,77.74,122.82c0,0,0,0,0.05,0c9.09,4.34,18.76,7.63,28.84,9.82
		h516.48C826.63,592.55,871.09,643.8,871.09,705.4z"/>
	<path d="M209.18,375.43c0-2.46,0.05-4.86,0.21-7.26h652.26c26.33,4.39,51.15,13.22,73.71,25.7c25.29,13.95,47.65,32.5,66.09,54.49
		c30.67,36.67,50.26,82.96,53.55,133.74v171.78c-5.28,81.19-52.24,150.98-119.64,188.23c-26.07,14.42-55.22,23.98-86.2,27.43
		c-8.57,0.99-17.29,1.46-26.12,1.46H232.69c-81.29,0-149.68-55.43-169.32-130.61h736.16c20.79,0,40.44-4.65,58.04-13.01
		c45.97-21.73,77.79-68.6,77.79-122.82v-73.14c0-54.23-31.76-101.04-77.74-122.82c0,0,0,0-0.05,0c-9.09-4.34-18.76-7.63-28.84-9.82
		H312.26C253.64,488.27,209.18,437.02,209.18,375.43z"/>
</g>
</svg>
