<?xml version="1.0" encoding="utf-8"?>
<!-- Generator: Adobe Illustrator 24.0.2, SVG Export Plug-In . SVG Version: 6.00 Build 0)  -->
<svg version="1.1" id="Слой_1" xmlns="http://www.w3.org/2000/svg" xmlns:xlink="http://www.w3.org/1999/xlink" x="0px" y="0px"
	 viewBox="0 0 512 512" style="enable-background:new 0 0 512 512;" xml:space="preserve">
<style type="text/css">
	.st0{fill:none;stroke:#FFFFFF;stroke-width:24;stroke-miterlimit:10;}
</style>
<path class="st0" d="M438.6,120.7c0,4.1-0.8,8.2-1.6,13.1l-55,261c-4.1,21.3-14.8,28.7-34.5,17.2l-83.7-63.2l-48.4,46.8
	c-5.7,4.9-15.6,4.9-20.5-5.7l5.7-68.1l176.5-160c9.8-9-1.6-11.5-13.1-3.3l-205.2,128l-85.4-27.1c-6.6-2.5-9-6.6-9-10.7
	c0-4.9,4.9-10.7,12.3-14l331.6-128.9C427.9,97.7,438.6,104.3,438.6,120.7z"/>
</svg>
